<?xml version="1.0" encoding="UTF-8"?>
<svg width="3200" height="900" viewBox="0 0 3200 900" fill="none" xmlns="http://www.w3.org/2000/svg">

  <!-- Symbol -->
  <g transform="translate(150,120)">
    <!-- Outer arch -->
    <path d="M150 520 L150 200 Q150 130 200 90 L280 20 Q330 -20 380 20 L460 90 Q510 130 510 200 L510 520"
          stroke="#1F1F1F" stroke-width="24" stroke-linecap="round" stroke-linejoin="round"/>
    <!-- Inner arch -->
    <path d="M195 520 L195 230 Q195 170 230 140 L290 90 Q330 60 370 90 L430 140 Q465 170 465 230 L465 520"
          stroke="#1F1F1F" stroke-width="24" stroke-linecap="round" stroke-linejoin="round"/>

    <!-- Larger Gold Star -->
    <g transform="translate(500,-10)">
      <path d="M0 28 C14 28 28 14 28 0 C28 14 42 28 56 28 C42 28 28 42 28 56 C28 42 14 28 0 28Z" fill="#B8902A"/>
    </g>
  </g>

  <!-- Text -->
  <g transform="translate(800,520)">
    <text x="0" y="0"
          fill="#1F1F1F"
          font-family="Georgia, 'Times New Roman', serif"
          font-size="220"
          letter-spacing="10">WORSHIP ATELIER</text>
  </g>

</svg>
